<svg width="104" height="25" viewBox="0 0 104 25" fill="none" xmlns="http://www.w3.org/2000/svg">
<path d="M16.5999 6.32C15.9163 5.53962 15.5396 4.53743 15.5399 3.5H12.4499V15.9C12.4261 16.571 12.1428 17.2066 11.6597 17.6729C11.1766 18.1393 10.5314 18.3999 9.85991 18.4C8.43991 18.4 7.25991 17.24 7.25991 15.8C7.25991 14.08 8.91991 12.79 10.6299 13.32V10.16C7.17991 9.7 4.15991 12.38 4.15991 15.8C4.15991 19.13 6.91991 21.5 9.84991 21.5C12.9899 21.5 15.5399 18.95 15.5399 15.8V9.51C16.7929 10.4099 18.2973 10.8926 19.8399 10.89V7.8C19.8399 7.8 17.9599 7.89 16.5999 6.32Z" fill="#F0EBE1"/>
<path d="M53.0281 2.50073C54.1535 2.50259 54.7238 2.50855 55.2166 2.52322L55.4107 2.52956C55.6349 2.53753 55.8561 2.54753 56.1228 2.56003C57.1869 2.6092 57.9128 2.77753 58.5503 3.02503C59.2094 3.2792 59.7661 3.62253 60.3219 4.17837C60.8769 4.7342 61.2203 5.29253 61.4753 5.95003C61.7219 6.5867 61.8903 7.31337 61.9403 8.37753C61.9522 8.6442 61.9618 8.8654 61.9697 9.08964L61.976 9.28373C61.9906 9.77647 61.9973 10.3469 61.9994 11.4723L62.0002 12.2179C62.0003 12.309 62.0003 12.403 62.0003 12.5L62.0002 12.7821L61.9996 13.5278C61.9977 14.6532 61.9918 15.2236 61.9771 15.7163L61.9707 15.9104C61.9628 16.1347 61.9528 16.3559 61.9403 16.6225C61.8911 17.6867 61.7219 18.4125 61.4753 19.05C61.2211 19.7092 60.8769 20.2659 60.3219 20.8217C59.7661 21.3767 59.2069 21.72 58.5503 21.975C57.9128 22.2217 57.1869 22.39 56.1228 22.44C55.8561 22.4519 55.6349 22.4616 55.4107 22.4694L55.2166 22.4757C54.7238 22.4904 54.1535 22.497 53.0281 22.4992L52.2824 22.5C52.1913 22.5 52.0973 22.5 52.0003 22.5H51.7182L50.9725 22.4993C49.8471 22.4975 49.2767 22.4915 48.784 22.4768L48.5899 22.4705C48.3656 22.4625 48.1444 22.4525 47.8778 22.44C46.8136 22.3909 46.0886 22.2217 45.4503 21.975C44.7919 21.7209 44.2344 21.3767 43.6786 20.8217C43.1228 20.2659 42.7803 19.7067 42.5253 19.05C42.2778 18.4125 42.1103 17.6867 42.0603 16.6225C42.0484 16.3559 42.0387 16.1347 42.0309 15.9104L42.0246 15.7163C42.0099 15.2236 42.0033 14.6532 42.0011 13.5278L42.001 11.4723C42.0028 10.3469 42.0088 9.77647 42.0235 9.28373L42.0298 9.08964C42.0378 8.8654 42.0478 8.6442 42.0603 8.37753C42.1094 7.31253 42.2778 6.58753 42.5253 5.95003C42.7794 5.2917 43.1228 4.7342 43.6786 4.17837C44.2344 3.62253 44.7928 3.28003 45.4503 3.02503C46.0878 2.77753 46.8128 2.61003 47.8778 2.56003C48.1444 2.54816 48.3656 2.53847 48.5899 2.53062L48.784 2.52433C49.2767 2.50969 49.8471 2.50302 50.9725 2.50086L53.0281 2.50073ZM52.0003 7.50003C49.2374 7.50003 47.0003 9.73956 47.0003 12.5C47.0003 15.2629 49.2398 17.5 52.0003 17.5C54.7632 17.5 57.0003 15.2605 57.0003 12.5C57.0003 9.73713 54.7607 7.50003 52.0003 7.50003ZM52.0003 9.50003C53.6572 9.50003 55.0003 10.8427 55.0003 12.5C55.0003 14.1569 53.6576 15.5 52.0003 15.5C50.3434 15.5 49.0003 14.1574 49.0003 12.5C49.0003 10.8431 50.3429 9.50003 52.0003 9.50003ZM57.2503 6.00003C56.561 6.00003 56.0003 6.55994 56.0003 7.24918C56.0003 7.93843 56.5602 8.4992 57.2503 8.4992C57.9395 8.4992 58.5003 7.9393 58.5003 7.24918C58.5003 6.55994 57.9386 5.99917 57.2503 6.00003Z" fill="#F0EBE1"/>
<path d="M92.2439 4.5C92.778 4.50294 94.1143 4.51586 95.5341 4.57273L96.0375 4.59468C97.467 4.66236 98.8953 4.77798 99.6037 4.9755C100.549 5.24095 101.291 6.0155 101.542 6.99732C101.942 8.55641 101.992 11.5994 101.998 12.3358L101.999 12.4884V12.4991C101.999 12.4991 101.999 12.5028 101.999 12.5099L101.998 12.6625C101.992 13.3989 101.942 16.4419 101.542 18.001C101.288 18.9864 100.545 19.761 99.6037 20.0228C98.8953 20.2203 97.467 20.3359 96.0375 20.4036L95.5341 20.4255C94.1143 20.4824 92.778 20.4953 92.2439 20.4983L92.0095 20.4991H91.9991C91.9991 20.4991 91.9956 20.4991 91.9887 20.4991L91.7545 20.4983C90.6241 20.4921 85.8977 20.441 84.3945 20.0228C83.4496 19.7573 82.7069 18.9828 82.4559 18.001C82.0562 16.4419 82.0062 13.3989 82 12.6625V12.3358C82.0062 11.5994 82.0562 8.55641 82.4559 6.99732C82.7104 6.01186 83.4531 5.23732 84.3945 4.9755C85.8977 4.55723 90.6241 4.50622 91.7545 4.5H92.2439ZM89.9991 8.99914V15.9991L95.9991 12.4991L89.9991 8.99914Z" fill="#F0EBE1"/>
</svg>
