<svg width="30" height="38" viewBox="0 0 30 38" fill="none" xmlns="http://www.w3.org/2000/svg">
<path fill-rule="evenodd" clip-rule="evenodd" d="M0.416626 34C0.416626 33.0054 0.811714 32.0516 1.51498 31.3483C2.21824 30.6451 3.17206 30.25 4.16663 30.25H25.8333C26.8279 30.25 27.7817 30.6451 28.4849 31.3483C29.1882 32.0516 29.5833 33.0054 29.5833 34C29.5833 34.9946 29.1882 35.9484 28.4849 36.6516C27.7817 37.3549 26.8279 37.75 25.8333 37.75H4.16663C3.17206 37.75 2.21824 37.3549 1.51498 36.6516C0.811714 35.9484 0.416626 34.9946 0.416626 34ZM4.16663 32.75C3.8351 32.75 3.51716 32.8817 3.28274 33.1161C3.04832 33.3505 2.91663 33.6685 2.91663 34C2.91663 34.3315 3.04832 34.6495 3.28274 34.8839C3.51716 35.1183 3.8351 35.25 4.16663 35.25H25.8333C26.1648 35.25 26.4828 35.1183 26.7172 34.8839C26.9516 34.6495 27.0833 34.3315 27.0833 34C27.0833 33.6685 26.9516 33.3505 26.7172 33.1161C26.4828 32.8817 26.1648 32.75 25.8333 32.75H4.16663Z" fill="#262522"/>
<path fill-rule="evenodd" clip-rule="evenodd" d="M0.416626 29C0.416626 28.0054 0.811714 27.0516 1.51498 26.3483C2.21824 25.6451 3.17206 25.25 4.16663 25.25H25.8333C26.8279 25.25 27.7817 25.6451 28.4849 26.3483C29.1882 27.0516 29.5833 28.0054 29.5833 29C29.5833 29.9946 29.1882 30.9484 28.4849 31.6516C27.7817 32.3549 26.8279 32.75 25.8333 32.75H4.16663C3.17206 32.75 2.21824 32.3549 1.51498 31.6516C0.811714 30.9484 0.416626 29.9946 0.416626 29ZM4.16663 27.75C3.8351 27.75 3.51716 27.8817 3.28274 28.1161C3.04832 28.3505 2.91663 28.6685 2.91663 29C2.91663 29.3315 3.04832 29.6495 3.28274 29.8839C3.51716 30.1183 3.8351 30.25 4.16663 30.25H25.8333C26.1648 30.25 26.4828 30.1183 26.7172 29.8839C26.9516 29.6495 27.0833 29.3315 27.0833 29C27.0833 28.6685 26.9516 28.3505 26.7172 28.1161C26.4828 27.8817 26.1648 27.75 25.8333 27.75H4.16663Z" fill="#262522"/>
<path fill-rule="evenodd" clip-rule="evenodd" d="M0.416626 24C0.416626 23.0054 0.811714 22.0516 1.51498 21.3483C2.21824 20.6451 3.17206 20.25 4.16663 20.25H25.8333C26.8279 20.25 27.7817 20.6451 28.4849 21.3483C29.1882 22.0516 29.5833 23.0054 29.5833 24C29.5833 24.9946 29.1882 25.9484 28.4849 26.6516C27.7817 27.3549 26.8279 27.75 25.8333 27.75H4.16663C3.17206 27.75 2.21824 27.3549 1.51498 26.6516C0.811714 25.9484 0.416626 24.9946 0.416626 24ZM4.16663 22.75C3.8351 22.75 3.51716 22.8817 3.28274 23.1161C3.04832 23.3505 2.91663 23.6685 2.91663 24C2.91663 24.3315 3.04832 24.6495 3.28274 24.8839C3.51716 25.1183 3.8351 25.25 4.16663 25.25H25.8333C26.1648 25.25 26.4828 25.1183 26.7172 24.8839C26.9516 24.6495 27.0833 24.3315 27.0833 24C27.0833 23.6685 26.9516 23.3505 26.7172 23.1161C26.4828 22.8817 26.1648 22.75 25.8333 22.75H4.16663Z" fill="#262522"/>
<path fill-rule="evenodd" clip-rule="evenodd" d="M4.16663 17.75C3.8351 17.75 3.51716 17.8817 3.28274 18.1161C3.04832 18.3505 2.91663 18.6685 2.91663 19C2.91663 19.3315 3.04832 19.6495 3.28274 19.8839C3.51716 20.1183 3.8351 20.25 4.16663 20.25H25.8333C26.1648 20.25 26.4828 20.1183 26.7172 19.8839C26.9516 19.6495 27.0833 19.3315 27.0833 19C27.0833 18.6685 26.9516 18.3505 26.7172 18.1161C26.4828 17.8817 26.1648 17.75 25.8333 17.75H17.5C17.1684 17.75 16.8505 17.6183 16.6161 17.3839C16.3817 17.1495 16.25 16.8315 16.25 16.5C16.25 16.1685 16.3817 15.8505 16.6161 15.6161C16.8505 15.3817 17.1684 15.25 17.5 15.25H25.8333C26.8279 15.25 27.7817 15.6451 28.4849 16.3483C29.1882 17.0516 29.5833 18.0054 29.5833 19C29.5833 19.9946 29.1882 20.9484 28.4849 21.6516C27.7817 22.3549 26.8279 22.75 25.8333 22.75H4.16663C3.17206 22.75 2.21824 22.3549 1.51498 21.6516C0.811714 20.9484 0.416626 19.9946 0.416626 19C0.416626 18.0054 0.811714 17.0516 1.51498 16.3483C2.21824 15.6451 3.17206 15.25 4.16663 15.25H12.5C12.8315 15.25 13.1494 15.3817 13.3838 15.6161C13.6183 15.8505 13.75 16.1685 13.75 16.5C13.75 16.8315 13.6183 17.1495 13.3838 17.3839C13.1494 17.6183 12.8315 17.75 12.5 17.75H4.16663Z" fill="#262522"/>
<path fill-rule="evenodd" clip-rule="evenodd" d="M4.16663 12.75C3.8351 12.75 3.51716 12.8817 3.28274 13.1161C3.04832 13.3505 2.91663 13.6685 2.91663 14C2.91663 14.3315 3.04832 14.6495 3.28274 14.8839C3.51716 15.1183 3.8351 15.25 4.16663 15.25H12.5C12.8315 15.25 13.1494 15.3817 13.3838 15.6161C13.6183 15.8505 13.75 16.1685 13.75 16.5C13.75 16.8315 13.6183 17.1495 13.3838 17.3839C13.1494 17.6183 12.8315 17.75 12.5 17.75H4.16663C3.17206 17.75 2.21824 17.3549 1.51498 16.6516C0.811714 15.9484 0.416626 14.9946 0.416626 14C0.416626 13.0054 0.811714 12.0516 1.51498 11.3483C2.21824 10.6451 3.17206 10.25 4.16663 10.25H12.5C12.8315 10.25 13.1494 10.3817 13.3838 10.6161C13.6183 10.8505 13.75 11.1685 13.75 11.5C13.75 11.8315 13.6183 12.1495 13.3838 12.3839C13.1494 12.6183 12.8315 12.75 12.5 12.75H4.16663ZM16.25 11.5C16.25 11.1685 16.3817 10.8505 16.6161 10.6161C16.8505 10.3817 17.1684 10.25 17.5 10.25H25.8333C26.8279 10.25 27.7817 10.6451 28.4849 11.3483C29.1882 12.0516 29.5833 13.0054 29.5833 14C29.5833 14.9946 29.1882 15.9484 28.4849 16.6516C27.7817 17.3549 26.8279 17.75 25.8333 17.75H17.5C17.1684 17.75 16.8505 17.6183 16.6161 17.3839C16.3817 17.1495 16.25 16.8315 16.25 16.5C16.25 16.1685 16.3817 15.8505 16.6161 15.6161C16.8505 15.3817 17.1684 15.25 17.5 15.25H25.8333C26.1648 15.25 26.4828 15.1183 26.7172 14.8839C26.9516 14.6495 27.0833 14.3315 27.0833 14C27.0833 13.6685 26.9516 13.3505 26.7172 13.1161C26.4828 12.8817 26.1648 12.75 25.8333 12.75H17.5C17.1684 12.75 16.8505 12.6183 16.6161 12.3839C16.3817 12.1495 16.25 11.8315 16.25 11.5Z" fill="#262522"/>
<path fill-rule="evenodd" clip-rule="evenodd" d="M4.16663 7.75C3.8351 7.75 3.51716 7.8817 3.28274 8.11612C3.04832 8.35054 2.91663 8.66848 2.91663 9C2.91663 9.33152 3.04832 9.64946 3.28274 9.88388C3.51716 10.1183 3.8351 10.25 4.16663 10.25H12.5C12.8315 10.25 13.1494 10.3817 13.3838 10.6161C13.6183 10.8505 13.75 11.1685 13.75 11.5C13.75 11.8315 13.6183 12.1495 13.3838 12.3839C13.1494 12.6183 12.8315 12.75 12.5 12.75H4.16663C3.17206 12.75 2.21824 12.3549 1.51498 11.6516C0.811714 10.9484 0.416626 9.99456 0.416626 9C0.416626 8.00544 0.811714 7.05161 1.51498 6.34835C2.21824 5.64509 3.17206 5.25 4.16663 5.25H12.5C12.8315 5.25 13.1494 5.3817 13.3838 5.61612C13.6183 5.85054 13.75 6.16848 13.75 6.5C13.75 6.83152 13.6183 7.14946 13.3838 7.38388C13.1494 7.6183 12.8315 7.75 12.5 7.75H4.16663ZM16.25 6.5C16.25 6.16848 16.3817 5.85054 16.6161 5.61612C16.8505 5.3817 17.1684 5.25 17.5 5.25H25.8333C26.8279 5.25 27.7817 5.64509 28.4849 6.34835C29.1882 7.05161 29.5833 8.00544 29.5833 9C29.5833 9.99456 29.1882 10.9484 28.4849 11.6516C27.7817 12.3549 26.8279 12.75 25.8333 12.75H17.5C17.1684 12.75 16.8505 12.6183 16.6161 12.3839C16.3817 12.1495 16.25 11.8315 16.25 11.5C16.25 11.1685 16.3817 10.8505 16.6161 10.6161C16.8505 10.3817 17.1684 10.25 17.5 10.25H25.8333C26.1648 10.25 26.4828 10.1183 26.7172 9.88388C26.9516 9.64946 27.0833 9.33152 27.0833 9C27.0833 8.66848 26.9516 8.35054 26.7172 8.11612C26.4828 7.8817 26.1648 7.75 25.8333 7.75H17.5C17.1684 7.75 16.8505 7.6183 16.6161 7.38388C16.3817 7.14946 16.25 6.83152 16.25 6.5Z" fill="#262522"/>
<path fill-rule="evenodd" clip-rule="evenodd" d="M7.08325 4C7.08325 3.00544 7.47834 2.05161 8.1816 1.34835C8.88486 0.645088 9.83869 0.25 10.8333 0.25H19.1666C20.1611 0.25 21.115 0.645088 21.8182 1.34835C22.5215 2.05161 22.9166 3.00544 22.9166 4C22.9166 4.99456 22.5215 5.94839 21.8182 6.65165C21.115 7.35491 20.1611 7.75 19.1666 7.75H18.7499V15.6667C18.7499 16.6612 18.3548 17.6151 17.6516 18.3183C16.9483 19.0216 15.9945 19.4167 14.9999 19.4167C14.0054 19.4167 13.0515 19.0216 12.3483 18.3183C11.645 17.6151 11.2499 16.6612 11.2499 15.6667V7.75H10.8333C9.83869 7.75 8.88486 7.35491 8.1816 6.65165C7.47834 5.94839 7.08325 4.99456 7.08325 4ZM10.8333 2.75C10.5017 2.75 10.1838 2.8817 9.94937 3.11612C9.71495 3.35054 9.58325 3.66848 9.58325 4C9.58325 4.33152 9.71495 4.64946 9.94937 4.88388C10.1838 5.1183 10.5017 5.25 10.8333 5.25H12.4999C12.8314 5.25 13.1494 5.3817 13.3838 5.61612C13.6182 5.85054 13.7499 6.16848 13.7499 6.5V15.6667C13.7499 15.9982 13.8816 16.3161 14.116 16.5505C14.3505 16.785 14.6684 16.9167 14.9999 16.9167C15.3314 16.9167 15.6494 16.785 15.8838 16.5505C16.1182 16.3161 16.2499 15.9982 16.2499 15.6667V6.5C16.2499 6.16848 16.3816 5.85054 16.616 5.61612C16.8505 5.3817 17.1684 5.25 17.4999 5.25H19.1666C19.4981 5.25 19.816 5.1183 20.0505 4.88388C20.2849 4.64946 20.4166 4.33152 20.4166 4C20.4166 3.66848 20.2849 3.35054 20.0505 3.11612C19.816 2.8817 19.4981 2.75 19.1666 2.75H10.8333Z" fill="#262522"/>
</svg>
