<svg width="20" height="21" viewBox="0 0 20 21" fill="none" xmlns="http://www.w3.org/2000/svg">
<path d="M11.0281 0.500732C12.1535 0.502592 12.7238 0.508552 13.2166 0.523222L13.4107 0.529562C13.6349 0.537532 13.8561 0.547532 14.1228 0.560032C15.1869 0.609202 15.9128 0.777532 16.5503 1.02503C17.2094 1.2792 17.7661 1.62253 18.3219 2.17837C18.8769 2.7342 19.2203 3.29253 19.4753 3.95003C19.7219 4.5867 19.8903 5.31337 19.9403 6.37753C19.9522 6.6442 19.9618 6.8654 19.9697 7.08964L19.976 7.28373C19.9906 7.77647 19.9973 8.34686 19.9994 9.4723L20.0002 10.2179C20.0003 10.309 20.0003 10.403 20.0003 10.5L20.0002 10.7821L19.9996 11.5278C19.9977 12.6532 19.9918 13.2236 19.9771 13.7163L19.9707 13.9104C19.9628 14.1347 19.9528 14.3559 19.9403 14.6225C19.8911 15.6867 19.7219 16.4125 19.4753 17.05C19.2211 17.7092 18.8769 18.2659 18.3219 18.8217C17.7661 19.3767 17.2069 19.72 16.5503 19.975C15.9128 20.2217 15.1869 20.39 14.1228 20.44C13.8561 20.4519 13.6349 20.4616 13.4107 20.4694L13.2166 20.4757C12.7238 20.4904 12.1535 20.497 11.0281 20.4992L10.2824 20.5C10.1913 20.5 10.0973 20.5 10.0003 20.5H9.7182L8.9725 20.4993C7.8471 20.4975 7.27672 20.4915 6.78397 20.4768L6.58989 20.4705C6.36564 20.4625 6.14444 20.4525 5.87778 20.44C4.81361 20.3909 4.08861 20.2217 3.45028 19.975C2.79194 19.7209 2.23444 19.3767 1.67861 18.8217C1.12278 18.2659 0.780277 17.7067 0.525277 17.05C0.277777 16.4125 0.110277 15.6867 0.0602767 14.6225C0.0483967 14.3559 0.0387066 14.1347 0.0308566 13.9104L0.0245667 13.7163C0.00993665 13.2236 0.00326674 12.6532 0.00110674 11.5278L0.000976562 9.4723C0.00283656 8.34686 0.00878657 7.77647 0.0234566 7.28373L0.0298066 7.08964C0.0377766 6.8654 0.0477767 6.6442 0.0602767 6.37753C0.109437 5.31253 0.277777 4.58753 0.525277 3.95003C0.779437 3.2917 1.12278 2.7342 1.67861 2.17837C2.23444 1.62253 2.79278 1.28003 3.45028 1.02503C4.08778 0.777532 4.81278 0.610032 5.87778 0.560032C6.14444 0.548162 6.36564 0.538472 6.58989 0.530622L6.78397 0.524332C7.27672 0.509692 7.8471 0.503022 8.9725 0.500862L11.0281 0.500732ZM10.0003 5.50003C7.23738 5.50003 5.00028 7.73956 5.00028 10.5C5.00028 13.2629 7.23981 15.5 10.0003 15.5C12.7632 15.5 15.0003 13.2605 15.0003 10.5C15.0003 7.73713 12.7607 5.50003 10.0003 5.50003ZM10.0003 7.50003C11.6572 7.50003 13.0003 8.8427 13.0003 10.5C13.0003 12.1569 11.6576 13.5 10.0003 13.5C8.3434 13.5 7.00028 12.1574 7.00028 10.5C7.00028 8.8431 8.3429 7.50003 10.0003 7.50003ZM15.2503 4.00003C14.561 4.00003 14.0003 4.55994 14.0003 5.24918C14.0003 5.93843 14.5602 6.4992 15.2503 6.4992C15.9395 6.4992 16.5003 5.9393 16.5003 5.24918C16.5003 4.55994 15.9386 3.99917 15.2503 4.00003Z" fill="#F0EBE1"/>
</svg>
